<?xml version="1.0" encoding="utf-8"?>
<svg id="svg2" viewBox="0 0 527.12 427.72" version="1.1" xmlns="http://www.w3.org/2000/svg">
  <title id="title3083">Onsen Mark 02</title>
  <g id="layer1" transform="translate(645.69 -531.86)">
    <g id="g3018">
      <path id="path3601" style="color: rgb(0, 0, 0); text-transform: none; text-indent: 0px; fill: rgb(255, 255, 255);" d="m-191.1 837.33a5.0005 5.0005 0 0 0 -1.6875 9.5c5.3511 2.7267 9.3329 5.5418 11.75 8.0938 2.4171 2.5519 3.2188 4.5729 3.2188 6.375 0 1.7398-0.71998 3.6612-2.9375 6.0938s-5.8813 5.1481-10.844 7.7812c-9.9249 5.2663-24.951 10.279-43.625 14.469-37.347 8.379-89.406 13.625-146.91 13.625-57.5 0-109.56-5.246-146.91-13.625-18.674-4.1895-33.7-9.2025-43.625-14.469-4.9625-2.6331-8.6262-5.3487-10.844-7.7812-2.2175-2.4326-2.9375-4.354-2.9375-6.0938 0-1.8068 0.80876-3.8243 3.2188-6.375s6.3724-5.3686 11.719-8.0938a5.0005 5.0005 0 0 0 -2.4375 -9.4688 5.0005 5.0005 0 0 0 -1.2188 0.1875c-21.098 6.0449-38.218 13.061-50.437 21.125-12.219 8.0637-20.094 17.644-20.094 28.75 0 11.872 8.9118 21.947 22.688 30.406 13.776 8.4591 33.087 15.752 56.781 21.906 47.389 12.309 112.34 19.844 184.09 19.844 71.754 0 136.7-7.5344 184.09-19.844 23.694-6.1547 43.006-13.447 56.781-21.906 13.776-8.4591 22.688-18.534 22.688-30.406 0-11.109-7.9002-20.687-20.125-28.75-12.225-8.0628-29.332-15.08-50.438-21.125a5.0005 5.0005 0 0 0 -1.9688 -0.21875z"/>
      <g id="g3013" transform="translate(.78442)">
        <path id="path3006" style="color: rgb(0, 0, 0); text-transform: none; text-indent: 0px; fill: rgb(255, 255, 255);" d="m-487.56 581.72a7.9059 7.9059 0 0 0 -0.75 0.0625c-6.2183 1.029-9.8246 5.9004-11.625 9.0312-1.8004 3.1309-3.0704 5.3842-3.125 5.4375a7.9059 7.9059 0 0 0 -1.2812 1.6562c-13.503 22.911-29.995 48.465-30.688 78.875a7.9059 7.9059 0 0 0 0.0625 1.0625c2.8019 24.76 17.512 46.36 32.781 62.281a7.9059 7.9059 0 0 0 0.0313 0c16.116 16.785 26.804 34.858 21.219 54.938a7.9059 7.9059 0 0 0 -0.125 0.5625c-3.8495 18.928-10.959 37.502-18.188 56.219a7.9059 7.9059 0 0 0 -0.3125 4.6562c1.0518 4.4319 4.0373 9.3865 9.2188 10.656 5.1815 1.2698 8.905-1.0174 11.531-3 4.9022-3.7008 8.1035-8.2427 10.062-13.25 13.408-22.747 29.605-48.086 30.281-78.219a7.9059 7.9059 0 0 0 -0.0625 -1.0938c-2.85-24.59-17.29-46.24-32.47-62.22-0.005-0.005 0.005-0.0258 0-0.0313h0.0313c-7.688-8.1448-14.54-16.636-18.656-25.219-4.1166-8.5826-5.6812-16.95-3.2812-26.469a7.9059 7.9059 0 0 0 0.16 -0.66c3.2797-20.042 11.079-39.706 18.469-59.812a7.9059 7.9059 0 0 0 0.5 -2.7188c-0.008-7.6695-6.4772-13.235-13.781-12.75z"/>
        <path id="path3009" style="color: rgb(0, 0, 0); text-transform: none; text-indent: 0px; fill: rgb(255, 255, 255);" d="m-279.89 580.21a7.9059 7.9059 0 0 0 -0.75 0.0625c-6.2183 1.029-9.8246 5.9004-11.625 9.0312-1.8004 3.1309-3.0704 5.3842-3.125 5.4375a7.9059 7.9059 0 0 0 -1.2812 1.6562c-13.503 22.911-29.995 48.465-30.688 78.875a7.9059 7.9059 0 0 0 0.0625 1.0625c2.8019 24.76 17.512 46.36 32.781 62.281a7.9059 7.9059 0 0 0 0.0313 0c16.116 16.785 26.804 34.858 21.219 54.938a7.9059 7.9059 0 0 0 -0.125 0.5625c-3.8495 18.928-10.959 37.502-18.188 56.219a7.9059 7.9059 0 0 0 -0.3125 4.6562c1.0518 4.4319 4.0373 9.3865 9.2188 10.656 5.1815 1.2698 8.905-1.0174 11.531-3 4.9022-3.7008 8.1035-8.2427 10.062-13.25 13.408-22.747 29.605-48.086 30.281-78.219a7.9059 7.9059 0 0 0 -0.0625 -1.0938c-2.8445-24.587-17.289-46.232-32.469-62.219-0.005-0.005 0.005-0.0258 0-0.0313h0.0313c-7.688-8.1448-14.54-16.636-18.656-25.219-4.1166-8.5826-5.6812-16.95-3.2812-26.469a7.9059 7.9059 0 0 0 0.1562 -0.6562c3.2797-20.042 11.079-39.706 18.469-59.812a7.9059 7.9059 0 0 0 0.5 -2.7188c-0.008-7.6695-6.4772-13.235-13.781-12.75z"/>
        <path id="path3011" style="color: rgb(255, 255, 255); text-transform: none; text-indent: 0px; fill: rgb(255, 255, 255);" d="m-383.86 531.89a9.201 9.201 0 0 0 -0.87285 0.0727c-7.2369 1.1976-11.434 6.8669-13.529 10.511-2.0953 3.6438-3.5734 6.2662-3.6369 6.3282a9.201 9.201 0 0 0 -1.4911 1.9276c-15.714 26.664-34.908 56.404-35.714 91.795a9.201 9.201 0 0 0 0.0727 1.2365c3.2608 28.815 20.38 53.954 38.151 72.483a9.201 9.201 0 0 0 0.0364 0c18.756 19.534 31.195 40.569 24.695 63.937a9.201 9.201 0 0 0 -0.14548 0.65464c-4.48 22.029-12.754 43.645-21.167 65.428a9.201 9.201 0 0 0 -0.36369 5.419c1.2242 5.1578 4.6986 10.924 10.729 12.402 6.0302 1.4778 10.364-1.1841 13.42-3.4914 5.7052-4.307 9.4309-9.5929 11.711-15.42 15.604-26.473 34.455-55.963 35.242-91.031a9.201 9.201 0 0 0 -0.0727 -1.2729c-3.3105-28.615-20.121-53.805-37.787-72.411-0.006-0.006 0.006-0.03 0-0.0364h0.0364c-8.9473-9.4789-16.921-19.361-21.712-29.35-4.7909-9.9885-6.6118-19.727-3.8187-30.804a9.201 9.201 0 0 0 0.18179 -0.76369c3.8169-23.325 12.894-46.21 21.494-69.61a9.201 9.201 0 0 0 0.5819 -3.1641c-0.009-8.9258-7.5382-15.403-16.039-14.839z"/>
      </g>
    </g>
  </g>
</svg>